solid OpenSCAD_Model
  facet normal 1 -0 0
    outer loop
      vertex 10 -4 12
      vertex 10 4 0
      vertex 10 4 12
    endloop
  endfacet
  facet normal 1 0 0
    outer loop
      vertex 10 4 0
      vertex 10 -4 12
      vertex 10 -4 0
    endloop
  endfacet
  facet normal -0 0 1
    outer loop
      vertex -10 4 12
      vertex 10 -4 12
      vertex 10 4 12
    endloop
  endfacet
  facet normal 0 0 1
    outer loop
      vertex 10 -4 12
      vertex -10 4 12
      vertex -10 -4 12
    endloop
  endfacet
  facet normal 0 0 -1
    outer loop
      vertex 2 -4 0
      vertex 10 4 0
      vertex 10 -4 0
    endloop
  endfacet
  facet normal -0 0 -1
    outer loop
      vertex 10 4 0
      vertex 2 -4 0
      vertex 2 4 0
    endloop
  endfacet
  facet normal 0 0 -1
    outer loop
      vertex -10 -4 0
      vertex -2 4 0
      vertex -2 -4 0
    endloop
  endfacet
  facet normal -0 0 -1
    outer loop
      vertex -2 4 0
      vertex -10 -4 0
      vertex -10 4 0
    endloop
  endfacet
  facet normal -1 0 0
    outer loop
      vertex -10 -4 0
      vertex -10 4 12
      vertex -10 4 0
    endloop
  endfacet
  facet normal -1 -0 0
    outer loop
      vertex -10 4 12
      vertex -10 -4 0
      vertex -10 -4 12
    endloop
  endfacet
  facet normal 0 1 0
    outer loop
      vertex 10 4 12
      vertex 2 4 6.5
      vertex -10 4 12
    endloop
  endfacet
  facet normal 0 1 -0
    outer loop
      vertex 10 4 0
      vertex 2 4 6.5
      vertex 10 4 12
    endloop
  endfacet
  facet normal 0 1 0
    outer loop
      vertex 2 4 6.5
      vertex 10 4 0
      vertex 2 4 0
    endloop
  endfacet
  facet normal 0 1 -0
    outer loop
      vertex -2 4 6.5
      vertex -10 4 12
      vertex 2 4 6.5
    endloop
  endfacet
  facet normal 0 1 0
    outer loop
      vertex -10 4 0
      vertex -2 4 6.5
      vertex -2 4 0
    endloop
  endfacet
  facet normal 0 1 0
    outer loop
      vertex -2 4 6.5
      vertex -10 4 0
      vertex -10 4 12
    endloop
  endfacet
  facet normal 0 -1 0
    outer loop
      vertex -10 -4 12
      vertex -2 -4 6.5
      vertex 10 -4 12
    endloop
  endfacet
  facet normal 0 -1 0
    outer loop
      vertex -10 -4 0
      vertex -2 -4 6.5
      vertex -10 -4 12
    endloop
  endfacet
  facet normal 0 -1 -0
    outer loop
      vertex -2 -4 6.5
      vertex -10 -4 0
      vertex -2 -4 0
    endloop
  endfacet
  facet normal 0 -1 0
    outer loop
      vertex 2 -4 6.5
      vertex 10 -4 12
      vertex -2 -4 6.5
    endloop
  endfacet
  facet normal 0 -1 0
    outer loop
      vertex 10 -4 0
      vertex 2 -4 6.5
      vertex 2 -4 0
    endloop
  endfacet
  facet normal 0 -1 0
    outer loop
      vertex 2 -4 6.5
      vertex 10 -4 0
      vertex 10 -4 12
    endloop
  endfacet
  facet normal -1 0 0
    outer loop
      vertex 2 -4 0
      vertex 2 4 6.5
      vertex 2 4 0
    endloop
  endfacet
  facet normal -1 -0 0
    outer loop
      vertex 2 4 6.5
      vertex 2 -4 0
      vertex 2 -4 6.5
    endloop
  endfacet
  facet normal 0 0 -1
    outer loop
      vertex -2 -4 6.5
      vertex 2 4 6.5
      vertex 2 -4 6.5
    endloop
  endfacet
  facet normal -0 0 -1
    outer loop
      vertex 2 4 6.5
      vertex -2 -4 6.5
      vertex -2 4 6.5
    endloop
  endfacet
  facet normal 1 -0 0
    outer loop
      vertex -2 -4 6.5
      vertex -2 4 0
      vertex -2 4 6.5
    endloop
  endfacet
  facet normal 1 0 0
    outer loop
      vertex -2 4 0
      vertex -2 -4 6.5
      vertex -2 -4 0
    endloop
  endfacet
endsolid OpenSCAD_Model
